---
name: connect using google
gourl: https://plus.google.com/+FumesMagazine/
---
<svg xmlns="http://www.w3.org/2000/svg" viewBox="0 0 22 22">
    <g shape-rendering="geometricPrecision" fill-rule="evenodd" clip-rule="evenodd">
        <path d="M12.55 14.46c0-1.08-.624-1.61-1.312-2.19l-.563-.438c-.172-.14-.406-.328-.406-.672s.234-.563.437-.766c.656-.516 1.313-1.063 1.313-2.22 0-1.19-.75-1.814-1.11-2.11h.97l1-.564H9.657c-.844 0-1.907.125-2.8.86-.67.578-1 1.376-1 2.095 0 1.22.94 2.455 2.596 2.455.157 0 .328-.016.5-.03-.077.187-.155.343-.155.61 0 .483.25.78.468 1.062-.703.047-2.017.125-2.986.72-.923.546-1.204 1.344-1.204 1.907 0 1.156 1.095 2.235 3.362 2.235 2.688 0 4.11-1.486 4.11-2.955zm-3.36-3.987c-1.346 0-1.956-1.736-1.956-2.783 0-.407.078-.828.344-1.157.25-.313.688-.517 1.095-.517 1.298 0 1.97 1.752 1.97 2.877 0 .282-.03.782-.39 1.142-.25.25-.673.437-1.064.438zm.015 6.285c-1.673 0-2.752-.797-2.752-1.907 0-1.11 1-1.484 1.345-1.61.657-.218 1.5-.25 1.642-.25.156 0 .234 0 .36.016 1.188.844 1.703 1.266 1.703 2.064 0 .97-.797 1.688-2.298 1.688z"/>
        <path d="M12.692 11.423h1.693v1.692h.846v-1.692h1.693v-.846H15.23V8.885h-.845v1.692h-1.693"/>
        <path d="M22 11c0-6.075-4.925-11-11-11S0 4.925 0 11s4.925 11 11 11 11-4.925 11-11zM1 11C1 5.477 5.477 1 11 1s10 4.477 10 10-4.477 10-10 10S1 16.523 1 11z"/>
    </g>
</svg>
