---
name: connect using twitter
gourl: https://twitter.com/fumesvoice
---
<svg xmlns="http://www.w3.org/2000/svg" viewBox="0 0 22 22">
  <g shape-rendering="geometricPrecision" fill-rule="evenodd" clip-rule="evenodd">
    <path d="M15.717 8.813c0-.11-.002-.22-.007-.33.475-.354.887-.797 1.213-1.304-.436.195-.904.326-1.396.38.502-.308.887-.802 1.07-1.395-.47.285-.99.49-1.544.595-.443-.504-1.075-.825-1.774-.837-1.343-.022-2.43 1.112-2.43 2.533 0 .202.02.398.062.587-2.02-.13-3.812-1.182-5.01-2.768-.21.38-.33.824-.33 1.3 0 .9.43 1.7 1.082 2.172-.4-.018-.773-.14-1.1-.337v.033c0 1.258.837 2.312 1.95 2.558-.205.06-.42.09-.64.088-.158 0-.31-.018-.458-.05.31 1.03 1.207 1.784 2.27 1.81-.832.69-1.88 1.1-3.018 1.098-.196 0-.39-.013-.58-.037 1.076.737 2.353 1.167 3.726 1.167 4.47 0 6.913-3.89 6.913-7.264z"/>
    <path d="M22 11c0-6.075-4.925-11-11-11S0 4.925 0 11s4.925 11 11 11 11-4.925 11-11zM1 11C1 5.477 5.477 1 11 1s10 4.477 10 10-4.477 10-10 10S1 16.523 1 11z"/>
  </g>
</svg>
