<svg xmlns="https://www.w3.org/2000/svg" width="1000" height="1000" viewBox="0.5 1000.5 1000 1000" enable-background="new 0.5 1000.5 1000 1000"><path d="M458.4 1465.9c-45.3-16.1-96.8-4.7-131.6 29.6l-25.2 25.2-84.9 84.9c-48.2 49.3-47.8 129 1 177.8 24.5 24.5 56.8 36.8 89.2 36.8 32.3 0 64.6-12.2 89.6-36.7l83.5-83.5 26.6-26.6c34-34.8 45.1-84.9 28.8-130.8-3.7-10.4-15.2-15.8-25.5-12.2-10.4 3.7-15.9 15.1-12.2 25.5 11.1 31.4 3.6 65.7-19.5 89.3l-37.2 37.2-73.1 73.1c-33.7 33.2-88.3 32.9-121.8-.5-33.3-33.3-33.6-87.9-.7-121.5l84.7-84.7 25.6-25.6c23.8-23.4 58.1-31 89.6-19.9 10.3 3.7 21.8-1.8 25.5-12.2 3.4-10.1-2-21.5-12.4-25.2zm126.2 76.5c32.8 0 65.2-12.7 89.2-36.3l25.7-25.7 11.3-11.3 73.7-73.7c48.2-49.3 47.8-129.1-1-177.8-49-48.9-128.8-49.2-177.5-1.3-.5.4-.6.5-85.3 85.2l-26.1 26.1c-34.1 34.8-45.1 84.9-28.8 130.8 2.9 8.2 10.6 13.3 18.8 13.3 2.2 0 4.5-.4 6.7-1.2 10.4-3.7 15.8-15.1 12.1-25.5-11.2-31.4-3.6-65.6 19.5-89.3l37.2-37.2 73.2-73.1c33.7-33.2 88.3-32.9 121.7.5 33.3 33.3 33.6 87.9.8 121.4l-73.5 73.5-11.3 11.3-25.6 25.6c-23.5 23-58.6 30.8-89.6 19.9-10.4-3.7-21.8 1.7-25.5 12.2-3.7 10.4 1.8 21.8 12.2 25.5 13.8 4.8 28 7.1 42.1 7.1zm-201.7 75.8c3.9 3.9 9 5.9 14.1 5.9s10.2-2 14.1-5.9l206.9-206.9c7.8-7.8 7.8-20.5 0-28.3s-20.5-7.8-28.3 0l-206.9 206.9c-7.7 7.8-7.7 20.4.1 28.3z"/><circle stroke="#000" stroke-width="30" stroke-miterlimit="10" cx="500.5" cy="1500.5" r="475" fill="none"/></svg>