<?xml version="1.0" encoding="utf-8"?>
<!-- Generator: Adobe Illustrator 15.0.2, SVG Export Plug-In . SVG Version: 6.00 Build 0)  -->
<!DOCTYPE svg PUBLIC "-//W3C//DTD SVG 1.1//EN" "http://www.w3.org/Graphics/SVG/1.1/DTD/svg11.dtd">
<svg version="1.1" id="Layer_1" xmlns="http://www.w3.org/2000/svg" xmlns:xlink="http://www.w3.org/1999/xlink" x="0px" y="0px"
	 width="800px" height="800px" viewBox="0 0 800 800" style="enable-background:new 0 0 800 800;" xml:space="preserve">
<style type="text/css">
<![CDATA[
	.st0{fill:#231F20;}
]]>
</style>
<path class="st0" d="M399.4,673.4c-98,0-177.8-85.1-177.8-189.6c0-104.5,79.7-189.6,177.8-189.6s177.8,85.1,177.8,189.6
	C577.2,588.3,497.4,673.4,399.4,673.4z M399.4,319.2c-84.2,0-152.8,73.8-152.8,164.6c0,90.8,68.5,164.6,152.8,164.6
	s152.8-73.8,152.8-164.6C552.2,393,483.6,319.2,399.4,319.2z"/>
<path class="st0" d="M399.4,616c-51,0-92.5-45-92.5-100.4c0-22.3,14-58.8,41.6-108.5c20-36.1,39.7-65.7,40.5-66.9l10.4-15.6
	l10.4,15.6c0.8,1.2,20.5,30.8,40.5,66.9c27.6,49.7,41.6,86.2,41.6,108.5C491.9,570.9,450.4,616,399.4,616z M399.4,370.1
	c-25.4,40.3-67.5,113.7-67.5,145.5c0,41.6,30.3,75.4,67.5,75.4c37.2,0,67.5-33.8,67.5-75.4C466.9,483.8,424.8,410.3,399.4,370.1z"/>
<path class="st0" d="M399.4,261.5c-4.7,0-9.1-2.7-11.2-6.9l-100-200c-1.9-3.9-1.7-8.5,0.5-12.2c2.3-3.7,6.3-5.9,10.6-5.9h3.4
	c4.8,0,9.1,2.7,11.2,7c3.5,7.2,10.7,11.7,18.7,11.7c8,0,15.1-4.5,18.7-11.7c2.1-4.3,6.5-7,11.2-7h6.9c4.8,0,9.1,2.7,11.2,7
	c3.5,7.2,10.7,11.7,18.7,11.7c8,0,15.1-4.5,18.7-11.7c2.1-4.3,6.5-7,11.2-7h6.9c4.8,0,9.1,2.7,11.2,7c3.5,7.2,10.7,11.7,18.7,11.7
	s15.1-4.5,18.7-11.7c2.1-4.3,6.5-7,11.2-7h3.4c4.3,0,8.4,2.2,10.6,5.9c2.3,3.7,2.5,8.3,0.5,12.2l-100,200
	C408.5,258.8,404.1,261.5,399.4,261.5z M328.9,80l70.5,141l70.5-141c-1.3,0.1-2.6,0.2-3.9,0.2c-12.9,0-24.8-5.3-33.3-14.4
	c-8.5,9.1-20.4,14.4-33.3,14.4c-12.9,0-24.8-5.3-33.3-14.4c-8.5,9.1-20.4,14.4-33.3,14.4C331.4,80.2,330.2,80.1,328.9,80z"/>
<path class="st0" d="M399.4,690c-49.5,0-100.8-10.5-152.5-31.1c-41.1-16.4-82.6-39.3-123.3-68C54.3,542.1,11.8,494.1,10,492
	l-7.2-8.2l7.2-8.2c1.8-2,44.3-50.1,113.5-98.8c40.7-28.7,82.2-51.5,123.3-68c51.8-20.7,103.1-31.1,152.5-31.1s100.8,10.5,152.5,31.1
	c41.1,16.4,82.6,39.3,123.3,68c69.2,48.7,111.7,96.8,113.5,98.8l7.2,8.2l-7.2,8.2c-1.8,2-44.3,50.1-113.5,98.8
	c-40.7,28.7-82.2,51.5-123.3,68C500.2,679.5,448.9,690,399.4,690z M36.5,483.8c15.1,15.7,51.5,51.5,101.9,87
	c61.2,43,156.1,94.2,261,94.2c104.9,0,199.8-51.2,261-94.2c50.4-35.4,86.8-71.2,101.9-87c-15.1-15.7-51.5-51.5-101.9-87
	c-61.2-43-156.1-94.2-261-94.2c-104.9,0-199.8,51.2-261,94.2C88,432.3,51.6,468.1,36.5,483.8z"/>
</svg>
