<?xml version="1.0" encoding="utf-8"?>
<!-- Generator: Adobe Illustrator 15.0.2, SVG Export Plug-In . SVG Version: 6.00 Build 0)  -->
<!DOCTYPE svg PUBLIC "-//W3C//DTD SVG 1.1//EN" "http://www.w3.org/Graphics/SVG/1.1/DTD/svg11.dtd">
<svg version="1.1" id="Layer_1" xmlns="http://www.w3.org/2000/svg" xmlns:xlink="http://www.w3.org/1999/xlink" x="0px" y="0px"
	 width="800px" height="800px" viewBox="0 0 800 800" style="enable-background:new 0 0 800 800;" xml:space="preserve">
<style type="text/css">
<![CDATA[
	.st0{display:none;fill:#FFFFFF;}
	.st1{fill:#231F20;}
]]>
</style>
<path class="st1" d="M400,600c-84.3,0-152.9-68.8-152.9-153.5c0-68.7,46-129.5,111.9-147.9l5.4-1.5l35.6,57.7l35.6-57.7l5.4,1.5
	c65.9,18.4,111.9,79.2,111.9,147.9C552.9,531.2,484.3,600,400,600z M357.6,314.8c-56.6,18.3-95.6,71.7-95.6,131.8
	c0,76.3,61.9,138.5,137.9,138.5c76.1,0,137.9-62.1,137.9-138.5c0-60.1-39-113.5-95.6-131.8L400,383.5L357.6,314.8z"/>
<path class="st1" d="M400,636.1c-44.1,0-89.9-8.8-136.2-26.1c-36.8-13.8-74-33-110.6-57.1c-62.1-41-100.2-81.3-101.8-83l-4.8-5.1
	l4.8-5.1c1.4-1.5,34.1-36.1,88.2-73.8c50.1-34.9,128.5-78.7,217.7-89.7l4.8-0.6l37.9,61.5l37.9-61.5l4.8,0.6
	c89.2,11,167.7,54.9,217.7,89.7c54.1,37.7,86.8,72.3,88.2,73.8l4.8,5.1l-4.8,5.1c-1.6,1.7-39.7,42.1-101.8,83
	c-36.5,24.1-73.7,43.3-110.6,57.1C489.9,627.4,444.1,636.1,400,636.1z M67.4,464.9c12.3,12.2,46.4,44.2,94.4,75.8
	c55.7,36.7,142.3,80.4,238.2,80.4c96,0,182.7-43.9,238.5-80.6c48-31.6,81.8-63.5,94.1-75.6c-11.1-11-40.1-38.3-81.1-66.8
	c-47.7-33.2-121.8-74.8-205.9-86.3l-45.6,74l-45.6-74c-84.2,11.6-158.5,53.3-206.2,86.5C107.3,426.8,78.5,453.9,67.4,464.9z"/>
<path id="white_2_" class="st0" d="M433.5,223.5h-6.3c-5,8.2-15.3,13.8-27.3,13.8c-12,0-22.3-5.6-27.3-13.8h-6.3
	c-5,8.2-15.3,13.8-27.3,13.8s-22.3-5.6-27.3-13.8h-3.1L400,371.5l91.2-148.1h-3.1c-5,8.2-15.3,13.8-27.3,13.8
	C448.8,237.3,438.5,231.7,433.5,223.5"/>
<path d="M400,537.9c-28.9,0-52.5-23.6-52.5-52.7c0-26.6,41.7-84.5,46.4-91l6.1-8.3l6.1,8.3c4.8,6.5,46.4,64.4,46.4,91
	C452.5,514.3,428.9,537.9,400,537.9z M400,411.6c-16.5,23.9-37.5,59.1-37.5,73.6c0,20.8,16.8,37.7,37.5,37.7
	c20.7,0,37.5-16.9,37.5-37.7C437.5,470.7,416.5,435.5,400,411.6z"/>
<path d="M333.3,272.3l-69.9-113.5h21.9l2.2,3.6c5.5,9.1,17.5,15,30.4,15c12.9,0,24.9-5.9,30.4-15l2.2-3.6h16.9l2.2,3.6
	c5.5,9.1,17.5,15,30.4,15c12.9,0,24.9-5.9,30.4-15l2.2-3.6h16.9l2.2,3.6c5.5,9.1,17.5,15,30.4,15c12.9,0,24.9-5.9,30.4-15l2.2-3.6
	h21.9l-69.9,113.5l-5-0.8c-20.8-3.4-41.5-5.2-61.7-5.2c-20.2,0-40.9,1.7-61.7,5.2L333.3,272.3z M400,251.3c19.4,0,39.3,1.5,59.2,4.6
	l40.8-66.2c-5.6,1.8-11.6,2.8-17.9,2.8c-16.7,0-31.9-7.1-40.8-18.7h-0.6c-8.9,11.6-24.1,18.7-40.8,18.7c-16.7,0-31.9-7.1-40.8-18.7
	h-0.6c-8.9,11.6-24.1,18.7-40.8,18.7c-6.2,0-12.3-1-17.9-2.8l40.8,66.2C360.7,252.9,380.6,251.3,400,251.3z"/>
</svg>
