<?xml version="1.0" encoding="utf-8"?>
<!-- Generator: Adobe Illustrator 15.0.2, SVG Export Plug-In . SVG Version: 6.00 Build 0)  -->
<!DOCTYPE svg PUBLIC "-//W3C//DTD SVG 1.1//EN" "http://www.w3.org/Graphics/SVG/1.1/DTD/svg11.dtd">
<svg version="1.1" id="Layer_1" xmlns="http://www.w3.org/2000/svg" xmlns:xlink="http://www.w3.org/1999/xlink" x="0px" y="0px"
	 width="800px" height="800px" viewBox="0 0 800 800" style="enable-background:new 0 0 800 800;" xml:space="preserve">
<style type="text/css">
<![CDATA[
	.st0{display:none;fill:#FFFFFF;}
	.st1{fill:#FFFFFF;stroke:#000000;stroke-width:15;stroke-linecap:round;stroke-linejoin:round;stroke-miterlimit:10;}
	.st2{fill:none;stroke:#000000;stroke-width:15;stroke-miterlimit:10;}
	.st3{fill:#FFFFFF;stroke:#000000;stroke-width:15;stroke-miterlimit:10;}
	.st4{fill:none;stroke:#231F20;stroke-width:15;}
	.st5{fill:none;stroke:#000000;stroke-width:15;stroke-linecap:round;stroke-linejoin:round;stroke-miterlimit:10;}
]]>
</style>
<circle class="st2" cx="401.6" cy="445.8" r="165.5"/>
<path class="st4" d="M441.8,266.4l-83.5,0C188.4,289.5,56.9,444,56.9,444S210.5,624.5,400,624.5c189.5,0,343.1-180.5,343.1-180.5
	S611.6,289.5,441.8,266.4z"/>
<path id="white_2_" class="st0" d="M433.5,223.5h-6.3c-5,8.2-15.3,13.8-27.3,13.8c-12,0-22.3-5.6-27.3-13.8h-6.3
	c-5,8.2-15.3,13.8-27.3,13.8s-22.3-5.6-27.3-13.8h-3.1L400,371.5l91.2-148.1h-3.1c-5,8.2-15.3,13.8-27.3,13.8
	C448.8,237.3,438.5,231.7,433.5,223.5"/>
<path class="st3" d="M400,554.3"/>
<path class="st1" d="M398.8,554.3c-42.8,0-77.5-37.1-77.5-82.8c0-19.5,16.4-48.5,42.2-83.2c33.6-45.2,35.3-75.6,35.3-75.6
	c0,0,1.2,30.4,34.8,75.6c25.8,34.6,42.2,63.7,42.2,83.2c0,45.7-34.7,82.8-77.5,82.8"/>
<path class="st5" d="M462.9,268.1l60.2-97.7h-4.2c-6.7,11-20.6,18.7-36.8,18.7c-16.2,0-30.1-7.6-36.8-18.7h-8.5
	c-6.7,11-20.6,18.7-36.8,18.7c-16.2,0-30.1-7.6-36.8-18.7h-8.5c-6.7,11-20.6,18.7-36.8,18.7c-16.2,0-30.1-7.6-36.8-18.7h-4.2
	l60.2,97.7c20.4-3.4,41.4-5.3,62.9-5.3C421.5,262.8,442.5,264.7,462.9,268.1"/>
</svg>
