<?xml version="1.0" encoding="utf-8"?>
<!-- Generator: Adobe Illustrator 15.0.2, SVG Export Plug-In . SVG Version: 6.00 Build 0)  -->
<!DOCTYPE svg PUBLIC "-//W3C//DTD SVG 1.1//EN" "http://www.w3.org/Graphics/SVG/1.1/DTD/svg11.dtd">
<svg version="1.1" id="Layer_1" xmlns="http://www.w3.org/2000/svg" xmlns:xlink="http://www.w3.org/1999/xlink" x="0px" y="0px"
	 width="800px" height="800px" viewBox="0 0 800 800" style="enable-background:new 0 0 800 800;" xml:space="preserve">
<g>
	<path d="M412.7,312.2c-0.2-3.7-1.5-6.7-4.1-9.4c-2.6-2.6-6.2-4.1-9.9-4.1c-1.8,0-3.6,0.4-5.4,1.1c-4.9,2-8.3,6.8-8.6,12
		c0,0.3-2.8,28.1-32.6,68.2c-30.7,41.2-44.9,70.3-44.9,91.5c0,52.9,40.7,96.3,90.7,96.8l0.8,0c0,0,0,0,0,0c0,0,0,0,0,0l0.2,0
		c50-0.4,90.7-43.9,90.7-96.8c0-21.3-14.3-50.3-44.9-91.5C416.2,341.5,413,315.5,412.7,312.2z M461.8,471.5
		c0,37.8-28.4,68.7-63.2,68.8c-34.9-0.1-63.3-31-63.3-68.8c0-10,6.8-31.1,39.4-74.8c9.4-12.7,17.6-25.9,23.9-38.7
		c6.2,12.7,14.2,25.7,23.8,38.7C454.9,440.4,461.8,461.5,461.8,471.5z"/>
	<path d="M759.3,441.4l-5.5-6.5c-1.4-1.6-34.5-40.3-89.1-82.2c-32.2-24.7-65.1-45.3-98-61.4c-27.5-13.5-55.3-23.8-82.6-30.8l51-82.8
		c2.7-4.3,2.8-9.7,0.3-14.2c-2.5-4.4-7.2-7.2-12.2-7.2h-4.2c-4.9,0-9.5,2.6-12,6.7c-4.4,7.2-14.1,11.9-24.8,11.9
		c-10.7,0-20.5-4.7-24.9-11.9c-2.5-4.2-7.1-6.7-12-6.7h-8.5c-4.9,0-9.5,2.6-12,6.8c-4.4,7.2-14.1,11.9-24.8,11.9
		c-10.7,0-20.5-4.7-24.8-11.9c-2.5-4.2-7.1-6.7-12-6.7h-8.5c-4.9,0-9.5,2.6-12,6.7c-4.4,7.2-14.1,11.9-24.8,11.9
		c-10.7,0-20.5-4.7-24.8-11.9c-2.5-4.2-7.1-6.8-12-6.8h-4.2c-5.1,0-9.8,2.7-12.2,7.2c-2.5,4.4-2.4,9.9,0.3,14.2l51,82.8
		c-27.3,7-55.1,17.4-82.6,30.8c-32.9,16.1-65.8,36.8-98,61.4c-54.7,41.9-87.8,80.6-89.1,82.2l-5.5,6.5c-1.3,1.5-1.3,3.7,0,5.2
		l5.5,6.5c1.6,1.9,40.2,46.9,102.9,92.5c36.9,26.9,74.6,48.3,112,63.7c47.1,19.4,93.8,29.3,138.9,29.3s91.8-9.8,138.9-29.3
		c37.3-15.4,75-36.8,112-63.7c62.7-45.6,101.3-90.6,102.9-92.5l5.5-6.5C760.6,445.1,760.6,442.9,759.3,441.4z M313.3,202.9
		c1.5,0.1,3.1,0.2,4.6,0.2c16,0,30.7-5.7,41.1-15.7c10.4,10,25.1,15.7,41.1,15.7c16,0,30.7-5.7,41-15.7c10.4,10,25.1,15.7,41.1,15.7
		c1.5,0,3.1-0.1,4.6-0.2l-30.8,50c-18.8-2.7-37.6-4-55.9-4c-18.3,0-37.1,1.4-55.9,4L313.3,202.9z M165.9,523.2
		c-44-31.9-76.2-64.3-90.1-79.1c12.1-12.9,39.6-40.7,76.9-69.3c38.1-29.2,94.1-65,158.5-83.9c-20.3,11.9-38.3,27.7-52.6,46.5
		c-23.9,31.4-36.6,69-36.6,108.5c0,59.6,29.6,114.6,77.6,147.7C245,575.5,197.8,546.3,165.9,523.2z M250.1,445.8
		c0-83.5,68-151.5,151.5-151.5c83.5,0,151.5,68,151.5,151.5c0,83.5-68,151.5-151.5,151.5C318,597.3,250.1,529.4,250.1,445.8z
		 M634.4,523c-30.5,22.2-75.7,50.4-128.1,68.6c18.1-13,33.6-29.3,45.9-48.2c18.9-29.1,28.9-62.8,28.9-97.5
		c0-38.8-12.2-75.7-35.3-106.8c-13.7-18.5-31.1-34.3-50.6-46.3c62,19.4,115.6,54,152.2,82c37.3,28.6,64.8,56.3,76.9,69.3
		C710.4,458.8,678.3,491,634.4,523z"/>
</g>
</svg>
