
<svg xmlns="http://www.w3.org/2000/svg" viewBox="0 0 22 22.124">
    <path d="M9.04 20.605c.436.36.84.683 1.204.96.22.17.377.286.463.348l.293.21.292-.21c.086-.062.244-.18.463-.347.364-.28.768-.6 1.204-.96 1.243-1.03 2.488-2.17 3.65-3.38 2.596-2.708 4.412-5.39 5.096-7.937.194-.722.294-1.425.294-2.11 0-6.79-6.2-9.694-11.005-4.577C6.208-2.515 0 .57 0 7.18c0 .685.1 1.39.293 2.11.684 2.546 2.5 5.227 5.096 7.935 1.162 1.212 2.406 2.35 3.65 3.38zM1 7.18c0-5.912 5.427-8.455 9.618-3.497l.382.45.382-.45C15.572-1.276 21 1.266 21 7.18c0 .594-.088 1.21-.26 1.85-.63 2.35-2.36 4.906-4.85 7.503-1.135 1.183-2.352 2.295-3.57 3.302-.424.352-1.32 1.085-1.32 1.085s-1.065-.873-1.322-1.086c-1.217-1.008-2.433-2.12-3.568-3.302-2.49-2.597-4.22-5.152-4.852-7.503C1.088 8.39 1 7.773 1 7.18z" fill-rule="evenodd" clip-rule="evenodd"/>
</svg>
