<svg xmlns="http://www.w3.org/2000/svg" viewBox="0 0 24 24">
    <g fill-rule="evenodd" clip-rule="evenodd">
        <path d="M11 0H2S0 0 0 2v18c0 2 2 2 2 2h9s2 0 2-2V2c0-2-2-2-2-2zm1 20c0 .482-.15.707-.447.856-.21.105-.444.144-.553.144H2c-.11 0-.342-.04-.553-.144C1.15 20.706 1 20.482 1 20v-2h11v2zm0-3H1V3.5h11V17zm0-14.5H1V2c0-.482.15-.707.447-.856C1.657 1.04 1.89 1 2 1h9c.11 0 .342.04.553.144.297.15.447.374.447.856v.5z"/>
        <circle cx="21.5" cy="17.5" r="1"/>
        <path d="M9 23H2.25c.25.5.75 1 1.75 1h18c2 0 2-2 2-2v-9s0-2-2-2h-8v1h5v11H9zm11-11h2c.482 0 .707.15.856.447.105.21.144.444.144.553v9c0 .11-.04.342-.144.553-.15.297-.374.447-.856.447h-2V12z"/>
        <circle cx="6.5" cy="19.5" r="1"/>
        <path d="M8.78 1.5H4.22c-.12 0-.22.097-.22.22v.06c0 .122.1.22.22.22H8.78C8.9 2 9 1.905 9 1.78v-.06c0-.12-.1-.22-.22-.22z"/>
    </g>
</svg>
