
<svg xmlns="http://www.w3.org/2000/svg" viewBox="0 0 22 22">
    <g fill-rule="evenodd" clip-rule="evenodd">
        <path d="M16.077 9.06c0-2.28-1.893-4.406-4.77-4.406-3.58 0-5.383 2.62-5.383 4.805 0 1.322.49 2.5 1.543 2.937.172.072.327.002.377-.192.034-.135.117-.476.153-.617.05-.193.03-.26-.108-.43-.305-.366-.498-.838-.498-1.508 0-1.943 1.424-3.683 3.71-3.683 2.022 0 3.134 1.262 3.134 2.947 0 2.218-.96 4.09-2.39 4.09-.788 0-1.377-.666-1.188-1.482.226-.974.665-2.026.665-2.73 0-.628-.33-1.154-1.016-1.154-.806 0-1.453.85-1.453 1.99 0 .727.24 1.218.24 1.218l-.968 4.19c-.13.57-.15 1.195-.133 1.723.055.473.514.86.912.34.28-.458.58-1.035.737-1.613.093-.342.53-2.114.53-2.114.262.51 1.027.96 1.84.96 2.422-.002 4.065-2.256 4.065-5.273z"/>
        <path d="M22 11c0-6.075-4.925-11-11-11S0 4.925 0 11s4.925 11 11 11 11-4.925 11-11zM1 11C1 5.477 5.477 1 11 1s10 4.477 10 10-4.477 10-10 10S1 16.523 1 11z"/>
    </g>
</svg>
