<?xml version="1.0" encoding="utf-8"?>
<!-- Generator: Adobe Illustrator 15.0.2, SVG Export Plug-In . SVG Version: 6.00 Build 0)  -->
<!DOCTYPE svg PUBLIC "-//W3C//DTD SVG 1.1//EN" "http://www.w3.org/Graphics/SVG/1.1/DTD/svg11.dtd">
<svg version="1.1" id="Layer_1" xmlns="http://www.w3.org/2000/svg" xmlns:xlink="http://www.w3.org/1999/xlink" x="0px" y="0px"
	 width="800px" height="800px" viewBox="0 0 800 800" style="enable-background:new 0 0 800 800;" xml:space="preserve">
<path d="M800,400C800,179.1,620.9,0,400,0S0,179.1,0,400s179.1,400,400,400S800,620.9,800,400z M36.4,400
	C36.4,199.2,199.2,36.4,400,36.4c200.8,0,363.6,162.8,363.6,363.6c0,200.8-162.8,363.6-363.6,363.6C199.2,763.6,36.4,600.8,36.4,400
	z"/>
<g>
	<path d="M399.6,371c-15.9,0-28.8,12.9-28.8,28.8c0,15.9,12.9,28.8,28.8,28.8c15.9,0,28.8-12.9,28.8-28.8
		C428.4,383.9,415.5,371,399.6,371z"/>
	<path d="M390.7,291.9c-0.2,0-0.3,0-0.4,0v0h-11.4v0.1c-5.6,0.6-9.9,5.3-10,11h0v20.2h0.1c0.6,5.2,4.7,9.2,9.9,9.8v0.1h11.4v-0.2
		c0.1,0,0.3,0,0.4,0c41.9,0,75.9,33.8,76.4,75.6H467v11.4h0.1c0.6,5.6,5.3,9.9,11,10v0h20.2v-0.1c5.2-0.6,9.2-4.7,9.8-9.9h0.1v-11.4
		h0C507.8,344.1,455.2,291.9,390.7,291.9z"/>
	<path d="M586,408.5c-0.5-107.3-87.9-194.5-195.3-194.5c-0.2,0-0.3,0-0.4,0v0h-11.4v0.1c-5.6,0.6-9.9,5.3-10,11h0v20.2h0.1
		c0.6,5.2,4.7,9.2,9.9,9.8v0.1h11.4v-0.2c0.1,0,0.3,0,0.4,0c84.7,0,153.7,68.7,154.2,153.4h-0.1v11.4h0.1c0.6,5.6,5.3,9.9,11,10v0
		H576v-0.1c5.2-0.6,9.2-4.7,9.8-9.9h0.1L586,408.5L586,408.5L586,408.5z"/>
</g>
</svg>
