<svg  class="date" xmlns="http://www.w3.org/2000/svg" viewBox="0 0 22 21">
    <g fill-rule="evenodd" clip-rule="evenodd">
        <path d="M17 3V1c0-.553-.45-1-1-1-.552 0-1 .447-1 1v2c0 .553.45 1 1 1 .552 0 1-.447 1-1zM2 6h18v1H2zM6.25 4c.414 0 .75-.334.75-.752V.752C7 .337 6.665 0 6.25 0h-.5C5.336 0 5 .334 5 .752v2.495c0 .416.335.753.75.753h.5zM8 2h6v1H8zM9 18v-8h-.805c-.144.543-.36.888-.652 1.033-.292.146-.806.25-1.543.312v.677h2.025V18H9z"/>
        <path d="M0 20c0 1 1.1 1 1.1 1H21s1 0 1-1V2h-4v1h3v17H1V3h3V2H0v18z"/>
        <path d="M15.437 11.092c-.182-.362-.086-.17 0 0z"/>
        <path d="M13.48 10c-1.042 0-1.763.59-2.16 1.773-.214.634-.32 1.394-.32 2.28 0 1.14.177 2.05.53 2.73.426.81 1.074 1.217 1.945 1.217.965 0 1.66-.497 2.085-1.49.293-.693.44-1.568.44-2.627 0-1.117-.162-1.996-.486-2.638-.418-.83-1.096-1.245-2.034-1.245zm1.104 6.35c-.277.433-.65.65-1.117.65-.58 0-.992-.355-1.232-1.064-.157-.464-.235-1.08-.235-1.844 0-1.017.123-1.786.368-2.308.246-.523.634-.784 1.164-.784.578 0 .967.275 1.167.825.2.55.3 1.252.3 2.104 0 1.18-.14 1.987-.416 2.42z"/>
    </g>
</svg>
