<svg class="arrowcircle" xmlns="http://www.w3.org/2000/svg" xmlns:xlink="http://www.w3.org/1999/xlink" viewBox="0 0 22 22">
    <defs>
      <g id="up" fill="red" >
        <path d="M11.5 16.5V6.75L15 9.5v-1l-4-3-4 3v1l3.502-2.75v9.75"/>
        <path d="M22 11c0-6.075-4.925-11-11-11S0 4.925 0 11s4.925 11 11 11 11-4.925 11-11zM1 11C1 5.477 5.477 1 11 1s10 4.477 10 10-4.477 10-10 10S1 16.523 1 11z"/>
      </g>
      <g id="right" fill="red" transform="rotate(90 11 11)">
        <path d="M11.5 16.5V6.75L15 9.5v-1l-4-3-4 3v1l3.502-2.75v9.75"/>
        <path d="M22 11c0-6.075-4.925-11-11-11S0 4.925 0 11s4.925 11 11 11 11-4.925 11-11zM1 11C1 5.477 5.477 1 11 1s10 4.477 10 10-4.477 10-10 10S1 16.523 1 11z"/>
      </g>
      <g id="down" fill="red" transform="rotate(180 11 11)">
        <path d="M11.5 16.5V6.75L15 9.5v-1l-4-3-4 3v1l3.502-2.75v9.75"/>
        <path d="M22 11c0-6.075-4.925-11-11-11S0 4.925 0 11s4.925 11 11 11 11-4.925 11-11zM1 11C1 5.477 5.477 1 11 1s10 4.477 10 10-4.477 10-10 10S1 16.523 1 11z"/>
      </g>
      <g id="left" fill="red" transform="rotate(270 11 11)">
        <path d="M11.5 16.5V6.75L15 9.5v-1l-4-3-4 3v1l3.502-2.75v9.75"/>
        <path d="M22 11c0-6.075-4.925-11-11-11S0 4.925 0 11s4.925 11 11 11 11-4.925 11-11zM1 11C1 5.477 5.477 1 11 1s10 4.477 10 10-4.477 10-10 10S1 16.523 1 11z"/>
      </g>
    </defs>


    <use class="left" xlink:href="defs.svg#left" ></use>
    <use class="right" xlink:href="defs.svg#right" ></use>
    <use class="top" xlink:href="defs.svg#up" ></use>
    <use class="left" xlink:href="defs.svg#down" ></use>


</svg>
