<svg class="arrowcircle right" xmlns="http://www.w3.org/2000/svg" xmlns:xlink="http://www.w3.org/1999/xlink" viewBox="0 0 800 800" >
  <g fill="red" >
  	<polygon points="200,418.2 554.5,418.2 454.5,545.5 490.9,545.5 600,400 490.9,254.5 454.5,254.5 554.5,381.9 200,381.9 	"/>
  	<path d="M400,800c220.9,0,400-179.1,400-400S620.9,0,400,0S0,179.1,0,400S179.1,800,400,800z M400,36.4
  		c200.8,0,363.6,162.8,363.6,363.6c0,200.8-162.8,363.6-363.6,363.6S36.4,600.8,36.4,400C36.4,199.2,199.2,36.4,400,36.4z"/>
  </g>
</svg>
