<svg class="rss" xmlns="http://www.w3.org/2000/svg" width="800" height="800" viewBox="0 0 800 800">
    <path d="M800 400C800 179.1 620.9 0 400 0S0 179.1 0 400s179.1 400 400 400 400-179.1 400-400zm-763.6 0C36.4 199.2 199.2 36.4 400 36.4S763.6 199.2 763.6 400 600.8 763.6 400 763.6 36.4 600.8 36.4 400z"/>
    <path d="M399.6 371c-15.9 0-28.8 12.9-28.8 28.8s12.9 28.8 28.8 28.8 28.8-12.9 28.8-28.8-12.9-28.8-28.8-28.8zM390.7 291.9h-11.8v.1c-5.6.6-9.9 5.3-10 11v20.2h.1c.6 5.2 4.7 9.2 9.9 9.8v.1h11.4v-.2h.4c41.9 0 75.9 33.8 76.4 75.6h-.1v11.4h.1c.6 5.6 5.3 9.9 11 10h20.2v-.1c5.2-.6 9.2-4.7 9.8-9.9h.1v-11.4c-.4-64.4-53-116.6-117.5-116.6z"/>
    <path d="M586 408.5C585.5 301.2 498.1 214 390.7 214h-11.8v.1c-5.6.6-9.9 5.3-10 11v20.2h.1c.6 5.2 4.7 9.2 9.9 9.8v.1h11.4v-.2h.4c84.7 0 153.7 68.7 154.2 153.4h-.1v11.4h.1c.6 5.6 5.3 9.9 11 10H576v-.1c5.2-.6 9.2-4.7 9.8-9.9h.1l.1-11.3z"/>
</svg>
