<svg class="tag" xmlns="http://www.w3.org/2000/svg" viewBox="0 0 21.544 21.543">
    <g fill-rule="evenodd" clip-rule="evenodd">
        <path d="M13.71 5.006c-.764.764-.75 2.016.03 2.797.782.78 2.034.795 2.798.03.764-.763.75-2.015-.03-2.796-.782-.78-2.035-.795-2.798-.03zm2.12 2.12c-.38.383-1.007.376-1.397-.015-.39-.39-.398-1.016-.016-1.398.382-.382 1.008-.375 1.398.016.39.39.398 1.017.016 1.4z"/>
        <path d="M20.338.68l-9.4-.68L.14 10.796c-.19.19-.187.504.008.7l9.9 9.9c.196.195.51.195.7.007l10.795-10.796-.68-9.4c-.018-.272-.26-.508-.525-.527zm-9.606 19.324c-.194.193-.505.187-.7-.01l-8.484-8.482c-.195-.195-.2-.51-.01-.7L11.414.936l7.906.745c.268.025.514.268.54.54l.745 7.907-9.873 9.874z"/>
    </g>
</svg>
