<?xml version="1.0" encoding="utf-8"?>
<!-- Generator: Adobe Illustrator 15.0.2, SVG Export Plug-In . SVG Version: 6.00 Build 0)  -->
<!DOCTYPE svg PUBLIC "-//W3C//DTD SVG 1.1//EN" "http://www.w3.org/Graphics/SVG/1.1/DTD/svg11.dtd">
<svg version="1.1" id="Capa_1" xmlns="http://www.w3.org/2000/svg" xmlns:xlink="http://www.w3.org/1999/xlink" x="0px" y="0px"
	 width="800px" height="800px" viewBox="0.5 800.5 800 800" enable-background="new 0.5 800.5 800 800" xml:space="preserve">
<polygon display="none" points="600,381.8 245.5,381.8 345.5,254.5 309.1,254.5 200,400 309.1,545.5 345.5,545.5 245.5,418.1 
	600,418.1 "/>
<path d="M400.5,800.5c-220.9,0-400,179.1-400,400s179.101,400,400,400c220.9,0,400-179.1,400-400S621.4,800.5,400.5,800.5z
	 M400.5,1564.1c-200.8,0-363.6-162.8-363.6-363.6s162.8-363.601,363.6-363.601c200.799,0,363.6,162.801,363.6,363.601
	S601.299,1564.1,400.5,1564.1z"/>
<g>
	<path d="M225.5,947.534h25.807v327.418c0,36.567,4.032,67.073,12.095,91.53c8.065,24.473,18.953,43.951,32.663,58.469
		c13.709,14.515,29.561,24.873,47.58,31.05c18.007,6.185,36.694,9.271,56.048,9.271c19.884,0,38.975-3.087,57.259-9.271
		c18.269-6.177,34.399-16.535,48.387-31.05c13.973-14.518,25.125-33.996,33.467-58.469c8.328-24.457,12.502-54.963,12.502-91.53
		V947.534H575.5v333.87c0,41.402-5.117,75.4-15.323,102.013c-10.221,26.614-23.664,47.859-40.323,63.711
		c-16.669,15.863-35.484,26.888-56.452,33.063c-20.967,6.175-42.213,9.274-63.709,9.274c-21.509,0-42.614-3.1-63.305-9.274
		c-20.705-6.176-39.252-17.2-55.646-33.063c-16.405-15.852-29.712-37.097-39.918-63.711c-10.219-26.612-15.323-60.61-15.323-102.013
		V947.534z"/>
</g>
<g>
	<path d="M575.5,1489.466h-25.807v-327.418c0-36.567-4.032-67.073-12.096-91.53c-8.064-24.473-18.952-43.951-32.662-58.469
		c-13.709-14.515-29.561-24.873-47.58-31.05c-18.007-6.185-36.693-9.271-56.048-9.271c-19.884,0-38.975,3.087-57.259,9.271
		c-18.269,6.177-34.399,16.535-48.387,31.05c-13.973,14.518-25.125,33.996-33.467,58.469c-8.328,24.457-12.502,54.963-12.502,91.53
		v327.418H225.5v-333.87c0-41.402,5.117-75.4,15.323-102.013c10.221-26.614,23.664-47.859,40.323-63.711
		c16.669-15.863,35.484-26.888,56.452-33.063c20.967-6.175,42.213-9.274,63.709-9.274c21.509,0,42.614,3.1,63.305,9.274
		c20.704,6.176,39.253,17.2,55.646,33.063c16.405,15.852,29.712,37.097,39.919,63.711c10.219,26.612,15.322,60.61,15.322,102.013
		V1489.466z"/>
</g>
<text transform="matrix(1 0 0 1 -412.4458 540.7588)" font-family="'SourceSansPro-ExtraLight'" font-size="187.6414">FUMES</text>
<text transform="matrix(0.7071 0.7071 -0.7071 0.7071 -478.2188 -852.2847)" font-family="'SourceSansPro-ExtraLight'" font-size="187.6414">S</text>
<text transform="matrix(0.7071 0.7071 0.7071 -0.7071 -251.7861 -1083.1641)" font-family="'SourceSansPro-ExtraLight'" font-size="187.6414">E</text>
<text transform="matrix(-0.7071 0.7071 -0.7071 -0.7071 -255.6064 -943.5186)" font-family="'SourceSansPro-ExtraLight'" font-size="187.6414">M</text>
<text transform="matrix(1 0 0 1 -214.4458 -884.8828)" font-family="'SourceSansPro-ExtraLight'" font-size="187.6414">U</text>
<text transform="matrix(-1 0 0 1 -435.4453 -866.7627)" font-family="'SourceSansPro-ExtraLight'" font-size="187.6414">F</text>
<text transform="matrix(0 1 -1 0 320.6743 -587.9839)" font-family="'SourceSansPro-ExtraLight'" font-size="187.6414">S</text>
<text transform="matrix(-5.960464e-08 1 1 5.960464e-08 348.1753 -674.0166)" font-family="'SourceSansPro-ExtraLight'" font-size="187.6414">E</text>
<text transform="matrix(-1 0 0 -1 252.2598 -578.0996)" font-family="'SourceSansPro-ExtraLight'" font-size="187.6414">M</text>
<text transform="matrix(0.7071 0.7071 -0.7071 0.7071 -32.4185 -560.4814)" font-family="'SourceSansPro-ExtraLight'" font-size="187.6414">U</text>
<text transform="matrix(-1 0 0 1 94.4414 -640.7627)" font-family="'SourceSansPro-ExtraLight'" font-size="187.6414">F</text>
<text transform="matrix(0 1 -1 0 992.6738 -843.6021)" font-family="'SourceSansPro-ExtraLight'" font-size="187.6414">S</text>
<text transform="matrix(-5.960464e-08 1 1 5.960464e-08 1014.1758 -933.6348)" font-family="'SourceSansPro-ExtraLight'" font-size="187.6414">E</text>
<text transform="matrix(-1 0 0 -1 913.2598 -833.7178)" font-family="'SourceSansPro-ExtraLight'" font-size="187.6414">M</text>
<text transform="matrix(0.7071 -0.7071 0.7071 0.7071 817.4863 -549.5107)" font-family="'SourceSansPro-ExtraLight'" font-size="187.6414">U</text>
<text transform="matrix(-1 0 0 1 760.4414 -664.3809)" font-family="'SourceSansPro-ExtraLight'" font-size="187.6414">F</text>
<text transform="matrix(-4.489659e-11 1 1 4.489659e-11 1698.6738 -560.4814)" font-family="'SourceSansPro-ExtraLight'" font-size="187.6414">S</text>
<text transform="matrix(1.470274e-07 -1 -1 -1.470274e-07 1465.6582 -382.9048)" font-family="'SourceSansPro-ExtraLight'" font-size="187.6414">E</text>
<text transform="matrix(1 0 0 1 1356.2852 -482.1973)" font-family="'SourceSansPro-ExtraLight'" font-size="187.6414">M</text>
<text transform="matrix(0.7071 -0.7071 0.7071 0.7071 1391.4863 -323.5107)" font-family="'SourceSansPro-ExtraLight'" font-size="187.6414">U</text>
<text transform="matrix(-1 0 0 1 1334.4414 -438.3809)" font-family="'SourceSansPro-ExtraLight'" font-size="187.6414">F</text>
<text transform="matrix(0.7071 0.7071 -0.7071 0.7071 -380.332 -560.4814)" font-family="'SourceSansPro-ExtraLight'" font-size="187.6414">S</text>
<text transform="matrix(0.7071 0.7071 0.7071 -0.7071 -421.7197 -640.7627)" font-family="'SourceSansPro-ExtraLight'" font-size="187.6414">E</text>
<text transform="matrix(-0.7071 0.7071 -0.7071 -0.7071 -421.7197 -505.1172)" font-family="'SourceSansPro-ExtraLight'" font-size="187.6414">M</text>
<text transform="matrix(1 0 0 1 -610.5591 -291.3604)" font-family="'SourceSansPro-ExtraLight'" font-size="187.6414">U</text>
<text transform="matrix(-1 0 0 1 -569.5586 -424.3613)" font-family="'SourceSansPro-ExtraLight'" font-size="187.6414">F</text>
<text transform="matrix(0.7071 0.7071 -0.7071 0.7071 -1220.2188 -342.3569)" font-family="'SourceSansPro-ExtraLight'" font-size="187.6414">S</text>
<text transform="matrix(0.7071 -0.7071 -0.7071 -0.7071 -1035.6885 -395.5693)" font-family="'SourceSansPro-ExtraLight'" font-size="187.6414">E</text>
<text transform="matrix(-0.7071 0.7071 -0.7071 -0.7071 -861.6064 -369.5908)" font-family="'SourceSansPro-ExtraLight'" font-size="187.6414">M</text>
<text transform="matrix(1 0 0 1 -1068.4458 -143.9551)" font-family="'SourceSansPro-ExtraLight'" font-size="187.6414">U</text>
<text transform="matrix(-1 0 0 1 -987.4453 -242.835)" font-family="'SourceSansPro-ExtraLight'" font-size="187.6414">F</text>
<path d="M-393.682,572.915h66.05v5.254h-60.045v52.165h50.663v5.254h-50.663v61.171h-6.004V572.915z"/>
<path d="M-224.432,699.01h-6.005v-76.183c0-8.509-0.938-15.606-2.814-21.297c-1.876-5.694-4.41-10.227-7.6-13.604
	s-6.878-5.787-11.071-7.224c-4.189-1.44-8.538-2.158-13.041-2.158c-4.626,0-9.068,0.718-13.322,2.158
	c-4.251,1.437-8.004,3.846-11.259,7.224c-3.251,3.378-5.846,7.91-7.787,13.604c-1.938,5.69-2.908,12.788-2.908,21.297v76.183h-5.629
	v-77.684c0-9.635,1.19-17.545,3.565-23.736c2.378-6.192,5.506-11.136,9.382-14.824c3.879-3.691,8.256-6.257,13.135-7.693
	c4.879-1.437,9.822-2.157,14.824-2.157c5.005,0,9.916,0.721,14.73,2.157c4.817,1.437,9.133,4.002,12.947,7.693
	c3.817,3.688,6.913,8.632,9.288,14.824c2.378,6.191,3.565,14.102,3.565,23.736V699.01z"/>
<path d="M-187.281,572.915h9.757l26.645,75.057l10.133,28.146h0.75l9.757-28.146l26.646-75.057h9.758v123.844h-6.006v-86.315
	c0-4.879,0.062-10.194,0.188-15.949c0.123-5.753,0.311-11.194,0.564-16.325h-0.752l-9.568,27.021l-27.584,77.684h-7.13
	l-27.771-77.684l-9.757-27.021h-0.751c0.25,5.131,0.437,10.572,0.563,16.325c0.124,5.755,0.188,11.07,0.188,15.949v86.315h-5.629
	V572.915z"/>
<path d="M-56.308,572.915h66.426v5.254h-60.421v49.913H0.36v5.254h-50.663v58.169h62.297v5.254h-68.302V572.915z"/>
<path d="M33.759,676.118c4.504,5.254,9.945,9.446,16.325,12.572c6.38,3.128,13.322,4.69,20.828,4.69c5.002,0,9.505-0.656,13.51-1.97
	c4.002-1.313,7.412-3.126,10.227-5.442c2.814-2.312,5.002-5.096,6.567-8.35c1.562-3.252,2.346-6.878,2.346-10.883
	c0-4.129-0.628-7.6-1.876-10.414c-1.252-2.815-2.909-5.254-4.973-7.318c-2.064-2.064-4.475-3.847-7.225-5.348
	c-2.753-1.501-5.693-2.938-8.819-4.316l-19.139-8.631c-2.627-1.126-5.413-2.501-8.351-4.128c-2.94-1.625-5.661-3.595-8.162-5.911
	c-2.504-2.313-4.568-5.128-6.192-8.443c-1.627-3.313-2.439-7.286-2.439-11.916c0-4.377,0.874-8.379,2.627-12.009
	c1.751-3.627,4.189-6.755,7.318-9.382c3.125-2.627,6.816-4.659,11.07-6.099c4.252-1.437,8.881-2.158,13.886-2.158
	c7.506,0,14.103,1.473,19.796,4.41c5.691,2.94,10.35,6.351,13.979,10.227l-3.753,4.128c-3.63-4.002-7.945-7.192-12.947-9.569
	c-5.005-2.375-10.695-3.565-17.075-3.565c-8.632,0-15.606,2.157-20.922,6.474c-5.318,4.315-7.975,10.039-7.975,17.169
	c0,3.879,0.718,7.163,2.157,9.852c1.438,2.691,3.252,5.005,5.442,6.942c2.187,1.941,4.532,3.565,7.036,4.879
	c2.501,1.313,4.879,2.472,7.131,3.471l19.139,8.632c3.378,1.501,6.661,3.161,9.852,4.973c3.189,1.814,6.005,3.973,8.443,6.474
	c2.439,2.504,4.378,5.474,5.817,8.913c1.437,3.441,2.158,7.538,2.158,12.29c0,4.756-0.938,9.101-2.815,13.041
	c-1.876,3.94-4.503,7.383-7.881,10.32c-3.377,2.941-7.443,5.225-12.196,6.85c-4.756,1.624-10.01,2.438-15.762,2.438
	c-9.259,0-17.264-1.753-24.019-5.254c-6.755-3.5-12.51-8.004-17.263-13.51L33.759,676.118z"/>
<path d="M-690.529,906.915h66.05v5.254h-60.045v52.165h50.663v5.254h-50.663v61.171h-6.004V906.915z"/>
<path d="M-521.279,1033.01h-6.005v-76.183c0-8.509-0.938-15.606-2.814-21.297c-1.876-5.694-4.41-10.227-7.6-13.604
	s-6.878-5.787-11.071-7.224c-4.189-1.44-8.538-2.158-13.041-2.158c-4.626,0-9.068,0.718-13.322,2.158
	c-4.251,1.437-8.004,3.846-11.259,7.224c-3.251,3.378-5.846,7.91-7.787,13.604c-1.938,5.69-2.908,12.788-2.908,21.297v76.183h-5.629
	v-77.684c0-9.635,1.19-17.545,3.565-23.736c2.378-6.192,5.506-11.136,9.382-14.824c3.879-3.691,8.256-6.257,13.135-7.693
	c4.879-1.437,9.822-2.157,14.824-2.157c5.005,0,9.916,0.721,14.73,2.157c4.817,1.437,9.133,4.002,12.947,7.693
	c3.817,3.688,6.913,8.632,9.288,14.824c2.378,6.191,3.565,14.102,3.565,23.736V1033.01z"/>
<path d="M-484.128,906.915h9.757l26.645,75.057l10.133,28.146h0.75l9.757-28.146l26.646-75.057h9.758v123.844h-6.006v-86.315
	c0-4.879,0.062-10.194,0.188-15.949c0.123-5.753,0.311-11.194,0.564-16.325h-0.752l-9.568,27.021l-27.584,77.684h-7.13
	l-27.771-77.684l-9.757-27.021h-0.751c0.25,5.131,0.437,10.572,0.563,16.325c0.124,5.755,0.188,11.07,0.188,15.949v86.315h-5.629
	V906.915z"/>
<path d="M-353.156,906.915h66.426v5.254h-60.421v49.913h50.663v5.254h-50.663v58.169h62.297v5.254h-68.302V906.915z"/>
<path d="M-420.515,1407.428h-6.005v-76.183c0-8.509-0.938-15.606-2.814-21.297c-1.876-5.694-4.41-10.227-7.6-13.604
	s-6.878-5.787-11.071-7.224c-4.189-1.44-8.538-2.158-13.041-2.158c-4.626,0-9.068,0.718-13.322,2.158
	c-4.251,1.437-8.004,3.846-11.259,7.224c-3.251,3.378-5.846,7.91-7.787,13.604c-1.938,5.69-2.908,12.788-2.908,21.297v76.183h-5.629
	v-77.684c0-9.635,1.19-17.545,3.565-23.736c2.378-6.192,5.506-11.136,9.382-14.824c3.879-3.691,8.256-6.257,13.135-7.693
	c4.879-1.437,9.822-2.157,14.824-2.157c5.005,0,9.916,0.721,14.73,2.157c4.817,1.437,9.133,4.002,12.947,7.693
	c3.817,3.688,6.913,8.632,9.288,14.824c2.378,6.191,3.565,14.102,3.565,23.736V1407.428z"/>
<path d="M-507.956,1281.333h9.757l26.645,75.057l10.133,28.146h0.75l9.757-28.146l26.646-75.057h9.758v123.844h-6.006v-86.315
	c0-4.879,0.062-10.194,0.188-15.949c0.123-5.753,0.311-11.194,0.564-16.325h-0.752l-9.568,27.021l-27.584,77.684h-7.13
	l-27.771-77.684l-9.757-27.021h-0.751c0.25,5.131,0.437,10.572,0.563,16.325c0.124,5.755,0.188,11.07,0.188,15.949v86.315h-5.629
	V1281.333z"/>
<path d="M-495.384,1281.333h66.426v5.254h-60.421v49.913h50.663v5.254h-50.663v58.169h62.297v5.254h-68.302V1281.333z"/>
<path d="M-263.088,1010.118c4.504,5.254,9.945,9.446,16.325,12.572c6.38,3.128,13.322,4.69,20.828,4.69
	c5.002,0,9.505-0.656,13.51-1.97c4.002-1.313,7.412-3.126,10.227-5.442c2.814-2.312,5.002-5.096,6.567-8.35
	c1.562-3.252,2.346-6.878,2.346-10.883c0-4.129-0.628-7.6-1.876-10.414c-1.252-2.815-2.909-5.254-4.973-7.318
	c-2.064-2.064-4.475-3.847-7.225-5.348c-2.753-1.501-5.693-2.938-8.819-4.316l-19.139-8.631c-2.627-1.126-5.413-2.501-8.351-4.128
	c-2.94-1.625-5.661-3.595-8.162-5.911c-2.504-2.313-4.568-5.128-6.192-8.443c-1.627-3.313-2.439-7.286-2.439-11.916
	c0-4.377,0.874-8.379,2.627-12.009c1.751-3.627,4.189-6.755,7.318-9.382c3.125-2.627,6.816-4.659,11.07-6.099
	c4.252-1.437,8.881-2.158,13.886-2.158c7.506,0,14.103,1.473,19.796,4.41c5.691,2.94,10.35,6.351,13.979,10.227l-3.753,4.128
	c-3.63-4.002-7.945-7.192-12.947-9.569c-5.005-2.375-10.695-3.565-17.075-3.565c-8.632,0-15.606,2.157-20.922,6.474
	c-5.318,4.315-7.975,10.039-7.975,17.169c0,3.879,0.718,7.163,2.157,9.852c1.438,2.691,3.252,5.005,5.442,6.942
	c2.187,1.941,4.532,3.565,7.036,4.879c2.501,1.313,4.879,2.472,7.131,3.471l19.139,8.632c3.378,1.501,6.661,3.161,9.852,4.973
	c3.189,1.814,6.005,3.973,8.443,6.474c2.439,2.504,4.378,5.474,5.817,8.913c1.437,3.441,2.158,7.538,2.158,12.29
	c0,4.756-0.938,9.101-2.815,13.041c-1.876,3.94-4.503,7.383-7.881,10.32c-3.377,2.941-7.443,5.225-12.196,6.85
	c-4.756,1.624-10.01,2.438-15.762,2.438c-9.259,0-17.264-1.753-24.019-5.254c-6.755-3.5-12.51-8.004-17.263-13.51L-263.088,1010.118
	z"/>
<path d="M334.11,507.5h89.916v7.152h-81.741v71.013h68.968v7.152h-68.968v83.272h-8.174V507.5z"/>
<path d="M519.215,435.297h9.757l26.646,75.057L565.75,538.5h0.75l9.758-28.146l26.645-75.057h9.758v123.844h-6.006v-86.315
	c0-4.879,0.062-10.194,0.188-15.949c0.123-5.753,0.311-11.194,0.564-16.325h-0.752l-9.568,27.021l-27.584,77.684h-7.13
	l-27.771-77.684l-9.758-27.021h-0.751c0.249,5.131,0.437,10.572,0.563,16.325c0.123,5.755,0.188,11.07,0.188,15.949v86.315h-5.629
	V435.297z"/>
<path d="M413.419,587.974c7.271,8.482,16.057,15.251,26.356,20.298c10.301,5.05,21.509,7.572,33.627,7.572
	c8.075,0,15.346-1.06,21.811-3.18c6.462-2.121,11.967-5.047,16.511-8.787c4.544-3.733,8.075-8.227,10.603-13.479
	c2.523-5.251,3.787-11.104,3.787-17.57c0-6.666-1.014-12.27-3.028-16.813c-2.021-4.545-4.696-8.482-8.028-11.815
	c-3.333-3.333-7.224-6.21-11.664-8.633c-4.444-2.424-9.191-4.743-14.238-6.969l-30.898-13.935
	c-4.241-1.818-8.739-4.038-13.482-6.664c-4.747-2.624-9.14-5.804-13.177-9.544c-4.043-3.735-7.376-8.278-9.998-13.632
	c-2.626-5.349-3.938-11.763-3.938-19.237c0-7.066,1.411-13.527,4.241-19.388c2.827-5.856,6.764-10.906,11.815-15.147
	c5.045-4.241,11.005-7.521,17.873-9.846c6.864-2.319,14.338-3.484,22.418-3.484c12.118,0,22.768,2.378,31.96,7.12
	c9.188,4.747,16.709,10.253,22.569,16.511l-6.059,6.664c-5.861-6.461-12.828-11.612-20.903-15.449
	c-8.08-3.835-17.268-5.757-27.567-5.757c-13.936,0-25.196,3.483-33.778,10.452c-8.586,6.967-12.874,16.208-12.874,27.719
	c0,6.262,1.158,11.564,3.482,15.905c2.32,4.345,5.25,8.08,8.787,11.208c3.529,3.134,7.316,5.756,11.359,7.877
	c4.037,2.12,7.877,3.99,11.513,5.604l30.898,13.936c5.453,2.423,10.754,5.104,15.905,8.028c5.149,2.929,9.694,6.413,13.631,10.451
	c3.938,4.043,7.068,8.837,9.393,14.39c2.319,5.557,3.484,12.17,3.484,19.842c0,7.679-1.516,14.693-4.546,21.055
	c-3.028,6.361-7.27,11.919-12.723,16.662c-5.452,4.749-12.018,8.435-19.691,11.059c-7.678,2.622-16.16,3.937-25.446,3.937
	c-14.948,0-27.872-2.83-38.777-8.482c-10.905-5.65-20.196-12.922-27.87-21.811L413.419,587.974z"/>
<path d="M-352.588,1226.437h-6.005v-76.183c0-8.509-0.938-15.606-2.814-21.297c-1.876-5.694-4.41-10.227-7.6-13.604
	s-6.878-5.787-11.071-7.224c-4.189-1.44-8.538-2.158-13.041-2.158c-4.626,0-9.068,0.718-13.322,2.158
	c-4.251,1.437-8.004,3.846-11.259,7.224c-3.251,3.378-5.846,7.91-7.787,13.604c-1.938,5.69-2.908,12.788-2.908,21.297v76.183h-5.629
	v-77.684c0-9.635,1.19-17.545,3.565-23.736c2.378-6.192,5.506-11.136,9.382-14.824c3.879-3.691,8.256-6.257,13.135-7.693
	c4.879-1.437,9.822-2.157,14.824-2.157c5.005,0,9.916,0.721,14.73,2.157c4.817,1.437,9.133,4.002,12.947,7.693
	c3.817,3.688,6.913,8.632,9.288,14.824c2.378,6.191,3.565,14.102,3.565,23.736V1226.437z"/>
<path d="M-429.146,1203.545c4.504,5.254,9.945,9.446,16.325,12.572c6.38,3.128,13.322,4.69,20.828,4.69
	c5.002,0,9.505-0.656,13.51-1.97c4.002-1.313,7.412-3.126,10.227-5.442c2.814-2.312,5.002-5.096,6.567-8.35
	c1.562-3.252,2.346-6.878,2.346-10.883c0-4.129-0.628-7.6-1.876-10.414c-1.252-2.815-2.909-5.254-4.973-7.318
	c-2.064-2.064-4.475-3.847-7.225-5.348c-2.753-1.501-5.693-2.938-8.819-4.316l-19.139-8.631c-2.627-1.126-5.413-2.501-8.351-4.128
	c-2.94-1.625-5.661-3.595-8.162-5.911c-2.504-2.313-4.568-5.128-6.192-8.443c-1.627-3.313-2.439-7.286-2.439-11.916
	c0-4.377,0.874-8.379,2.627-12.009c1.751-3.627,4.189-6.755,7.318-9.382c3.125-2.627,6.816-4.659,11.07-6.099
	c4.252-1.437,8.881-2.158,13.886-2.158c7.506,0,14.103,1.473,19.796,4.41c5.691,2.94,10.35,6.351,13.979,10.227l-3.753,4.128
	c-3.63-4.002-7.945-7.192-12.947-9.569c-5.005-2.375-10.695-3.565-17.075-3.565c-8.632,0-15.606,2.157-20.922,6.474
	c-5.318,4.315-7.975,10.039-7.975,17.169c0,3.879,0.718,7.163,2.157,9.852c1.438,2.691,3.252,5.005,5.442,6.942
	c2.187,1.941,4.532,3.565,7.036,4.879c2.501,1.313,4.879,2.472,7.131,3.471l19.139,8.632c3.378,1.501,6.661,3.161,9.852,4.973
	c3.189,1.814,6.005,3.973,8.443,6.474c2.439,2.504,4.378,5.474,5.817,8.913c1.437,3.441,2.158,7.538,2.158,12.29
	c0,4.756-0.938,9.101-2.815,13.041c-1.876,3.94-4.503,7.383-7.881,10.32c-3.377,2.941-7.443,5.225-12.196,6.85
	c-4.756,1.624-10.01,2.438-15.762,2.438c-9.259,0-17.264-1.753-24.019-5.254c-6.755-3.5-12.51-8.004-17.263-13.51L-429.146,1203.545
	z"/>
</svg>
