<svg xmlns="http://www.w3.org/2000/svg" viewBox="0 0 22 19">
    <path d="M8.922 16.98c1.258 0 1.696 2.02 1.696 2.02h.764s.438-2.02 1.696-2.02h8.042c.486 0 .88-.397.88-.885V2c0-2-2-2-2-2h-7.707C11.646 0 11 .817 11 1.23v.003C11 .82 10.367 0 9.733 0H2S0 0 0 2v14.095c0 .488.394.884.88.884H8.92zM11.5 1.676c0-.374.3-.677.662-.677h8.358c.245 0 .444.202.445.45L21 15.61c0 .25-.2.452-.44.452h-7.565c-.84 0-1.495.938-1.495.938V1.677zM1.035 1.45c0-.248.2-.45.445-.45h8.358c.363 0 .662.303.662.677V17s-.655-.938-1.494-.938H1.44c-.24 0-.44-.202-.44-.45l.035-14.16z" fill-rule="evenodd" clip-rule="evenodd"/>
</svg>
