<svg id="Layer_1" xmlns="http://www.w3.org/2000/svg" width="800" height="800" viewBox="0 0 800 800">
    <style>
<![CDATA[
	.st0{fill:#231F20;}
]]>
    </style>
    <path class="st0" d="M399.4 673.4c-98 0-177.8-85.1-177.8-189.6s79.7-189.6 177.8-189.6 177.8 85.1 177.8 189.6-79.8 189.6-177.8 189.6zm0-354.2c-84.2 0-152.8 73.8-152.8 164.6s68.5 164.6 152.8 164.6 152.8-73.8 152.8-164.6-68.6-164.6-152.8-164.6z"/>
    <path class="st0" d="M399.4 616c-51 0-92.5-45-92.5-100.4 0-22.3 14-58.8 41.6-108.5 20-36.1 39.7-65.7 40.5-66.9l10.4-15.6 10.4 15.6c.8 1.2 20.5 30.8 40.5 66.9 27.6 49.7 41.6 86.2 41.6 108.5 0 55.3-41.5 100.4-92.5 100.4zm0-245.9c-25.4 40.3-67.5 113.7-67.5 145.5 0 41.6 30.3 75.4 67.5 75.4s67.5-33.8 67.5-75.4c0-31.8-42.1-105.3-67.5-145.5zM399.4 261.5c-4.7 0-9.1-2.7-11.2-6.9l-100-200c-1.9-3.9-1.7-8.5.5-12.2 2.3-3.7 6.3-5.9 10.6-5.9h3.4c4.8 0 9.1 2.7 11.2 7 3.5 7.2 10.7 11.7 18.7 11.7s15.1-4.5 18.7-11.7c2.1-4.3 6.5-7 11.2-7h6.9c4.8 0 9.1 2.7 11.2 7 3.5 7.2 10.7 11.7 18.7 11.7s15.1-4.5 18.7-11.7c2.1-4.3 6.5-7 11.2-7h6.9c4.8 0 9.1 2.7 11.2 7 3.5 7.2 10.7 11.7 18.7 11.7s15.1-4.5 18.7-11.7c2.1-4.3 6.5-7 11.2-7h3.4c4.3 0 8.4 2.2 10.6 5.9 2.3 3.7 2.5 8.3.5 12.2l-100 200c-1.9 4.2-6.3 6.9-11 6.9zM328.9 80l70.5 141 70.5-141c-1.3.1-2.6.2-3.9.2-12.9 0-24.8-5.3-33.3-14.4-8.5 9.1-20.4 14.4-33.3 14.4-12.9 0-24.8-5.3-33.3-14.4-8.5 9.1-20.4 14.4-33.3 14.4-1.4 0-2.6-.1-3.9-.2z"/>
    <path class="st0" d="M399.4 690c-49.5 0-100.8-10.5-152.5-31.1-41.1-16.4-82.6-39.3-123.3-68C54.3 542.1 11.8 494.1 10 492l-7.2-8.2 7.2-8.2c1.8-2 44.3-50.1 113.5-98.8 40.7-28.7 82.2-51.5 123.3-68 51.8-20.7 103.1-31.1 152.5-31.1s100.8 10.5 152.5 31.1c41.1 16.4 82.6 39.3 123.3 68 69.2 48.7 111.7 96.8 113.5 98.8l7.2 8.2-7.2 8.2c-1.8 2-44.3 50.1-113.5 98.8-40.7 28.7-82.2 51.5-123.3 68-51.6 20.7-102.9 31.2-152.4 31.2zM36.5 483.8c15.1 15.7 51.5 51.5 101.9 87 61.2 43 156.1 94.2 261 94.2s199.8-51.2 261-94.2c50.4-35.4 86.8-71.2 101.9-87-15.1-15.7-51.5-51.5-101.9-87-61.2-43-156.1-94.2-261-94.2s-199.8 51.2-261 94.2c-50.4 35.5-86.8 71.3-101.9 87z"/>
</svg>
