<svg xmlns="http://www.w3.org/2000/svg" viewBox="0 0 18.959 20.721">
    <g fill-rule="evenodd" clip-rule="evenodd">
        <path d="M17.284 4.44l.636.81.308-.394.307-.394c.68-.87.524-2.13-.342-2.807L16.613.42c-.87-.678-2.128-.52-2.805.348l-.615.787.94.42.463-.592c.34-.434.97-.512 1.403-.174l1.578 1.233c.432.338.51.97.17 1.403l-.464.594zM9.48 4.72v5.993h-4v1.004h4v.004h.995v-.003h.004v-1.004h-.005V4.72M5.152.77C4.472-.103 3.212-.256 2.346.42L.766 1.656c-.87.68-1.02 1.94-.342 2.807l.615.787.635-.81-.463-.593c-.34-.434-.263-1.065.17-1.403l1.58-1.234c.43-.338 1.062-.26 1.402.174l.463.593.94-.42-.308-.394L5.15.77z"/>
        <path d="M.48 10.72c0 3.022 1.487 5.695 3.77 7.328l-1.984 1.976.7.697 2.14-2.13c1.295.72 2.786 1.13 4.373 1.13 1.554 0 3.016-.393 4.292-1.087l2.097 2.088.7-.696-1.935-1.926c2.324-1.627 3.844-4.325 3.844-7.377 0-4.97-4.03-9-9-9s-9 4.03-9 9zm17 0c0 4.42-3.583 8-8 8-4.42 0-8-3.58-8-8 0-4.417 3.58-8 8-8 4.417 0 8 3.583 8 8z"/>
    </g>
</svg>
