<svg id="Layer_1" xmlns="http://www.w3.org/2000/svg" width="800" height="800" viewBox="0 0 800 800">
    <style>
<![CDATA[
	.st0{display:none;fill:#FFFFFF;}
	.st1{fill:#231F20;}
]]>
    </style>
    <path class="st1" d="M400 600c-84.3 0-152.9-68.8-152.9-153.5 0-68.7 46-129.5 111.9-147.9l5.4-1.5 35.6 57.7 35.6-57.7 5.4 1.5c65.9 18.4 111.9 79.2 111.9 147.9 0 84.7-68.6 153.5-152.9 153.5zm-42.4-285.2C301 333.1 262 386.5 262 446.6c0 76.3 61.9 138.5 137.9 138.5 76.1 0 137.9-62.1 137.9-138.5 0-60.1-39-113.5-95.6-131.8L400 383.5l-42.4-68.7z"/>
    <path class="st1" d="M400 636.1c-44.1 0-89.9-8.8-136.2-26.1-36.8-13.8-74-33-110.6-57.1-62.1-41-100.2-81.3-101.8-83l-4.8-5.1 4.8-5.1c1.4-1.5 34.1-36.1 88.2-73.8 50.1-34.9 128.5-78.7 217.7-89.7l4.8-.6 37.9 61.5 37.9-61.5 4.8.6c89.2 11 167.7 54.9 217.7 89.7 54.1 37.7 86.8 72.3 88.2 73.8l4.8 5.1-4.8 5.1c-1.6 1.7-39.7 42.1-101.8 83-36.5 24.1-73.7 43.3-110.6 57.1-46.3 17.4-92.1 26.1-136.2 26.1zM67.4 464.9c12.3 12.2 46.4 44.2 94.4 75.8 55.7 36.7 142.3 80.4 238.2 80.4 96 0 182.7-43.9 238.5-80.6 48-31.6 81.8-63.5 94.1-75.6-11.1-11-40.1-38.3-81.1-66.8-47.7-33.2-121.8-74.8-205.9-86.3l-45.6 74-45.6-74c-84.2 11.6-158.5 53.3-206.2 86.5-40.9 28.5-69.7 55.6-80.8 66.6z"/>
    <path id="white_2_" class="st0" d="M433.5 223.5h-6.3c-5 8.2-15.3 13.8-27.3 13.8s-22.3-5.6-27.3-13.8h-6.3c-5 8.2-15.3 13.8-27.3 13.8s-22.3-5.6-27.3-13.8h-3.1l91.4 148 91.2-148.1h-3.1c-5 8.2-15.3 13.8-27.3 13.8-12 .1-22.3-5.5-27.3-13.7"/>
    <path d="M400 537.9c-28.9 0-52.5-23.6-52.5-52.7 0-26.6 41.7-84.5 46.4-91l6.1-8.3 6.1 8.3c4.8 6.5 46.4 64.4 46.4 91 0 29.1-23.6 52.7-52.5 52.7zm0-126.3c-16.5 23.9-37.5 59.1-37.5 73.6 0 20.8 16.8 37.7 37.5 37.7s37.5-16.9 37.5-37.7c0-14.5-21-49.7-37.5-73.6zM333.3 272.3l-69.9-113.5h21.9l2.2 3.6c5.5 9.1 17.5 15 30.4 15 12.9 0 24.9-5.9 30.4-15l2.2-3.6h16.9l2.2 3.6c5.5 9.1 17.5 15 30.4 15 12.9 0 24.9-5.9 30.4-15l2.2-3.6h16.9l2.2 3.6c5.5 9.1 17.5 15 30.4 15 12.9 0 24.9-5.9 30.4-15l2.2-3.6h21.9l-69.9 113.5-5-.8c-20.8-3.4-41.5-5.2-61.7-5.2-20.2 0-40.9 1.7-61.7 5.2l-5 .8zm66.7-21c19.4 0 39.3 1.5 59.2 4.6l40.8-66.2c-5.6 1.8-11.6 2.8-17.9 2.8-16.7 0-31.9-7.1-40.8-18.7h-.6c-8.9 11.6-24.1 18.7-40.8 18.7-16.7 0-31.9-7.1-40.8-18.7h-.6c-8.9 11.6-24.1 18.7-40.8 18.7-6.2 0-12.3-1-17.9-2.8l40.8 66.2c20.1-3 40-4.6 59.4-4.6z"/>
</svg>
