<svg id="Layer_1" xmlns="http://www.w3.org/2000/svg" width="800" height="800" viewBox="0 0 800 800">
    <style>
<![CDATA[
	.st0{display:none;fill:#FFFFFF;}
	.st1{fill:#FFFFFF;stroke:#000000;stroke-width:15;stroke-linecap:round;stroke-linejoin:round;stroke-miterlimit:10;}
	.st2{fill:none;stroke:#000000;stroke-width:15;stroke-miterlimit:10;}
	.st3{fill:#FFFFFF;stroke:#000000;stroke-width:15;stroke-miterlimit:10;}
	.st4{fill:none;stroke:#231F20;stroke-width:15;}
	.st5{fill:none;stroke:#000000;stroke-width:15;stroke-linecap:round;stroke-linejoin:round;stroke-miterlimit:10;}
]]>
    </style>
    <circle class="st2" cx="401.6" cy="445.8" r="165.5"/>
    <path class="st4" d="M441.8 266.4h-83.5C188.4 289.5 56.9 444 56.9 444S210.5 624.5 400 624.5c189.5 0 343.1-180.5 343.1-180.5S611.6 289.5 441.8 266.4z"/>
    <path id="white_2_" class="st0" d="M433.5 223.5h-6.3c-5 8.2-15.3 13.8-27.3 13.8s-22.3-5.6-27.3-13.8h-6.3c-5 8.2-15.3 13.8-27.3 13.8s-22.3-5.6-27.3-13.8h-3.1l91.4 148 91.2-148.1h-3.1c-5 8.2-15.3 13.8-27.3 13.8-12 .1-22.3-5.5-27.3-13.7"/>
    <path class="st1" d="M398.8 554.3c-42.8 0-77.5-37.1-77.5-82.8 0-19.5 16.4-48.5 42.2-83.2 33.6-45.2 35.3-75.6 35.3-75.6s1.2 30.4 34.8 75.6c25.8 34.6 42.2 63.7 42.2 83.2 0 45.7-34.7 82.8-77.5 82.8"/>
    <path class="st5" d="M462.9 268.1l60.2-97.7h-4.2c-6.7 11-20.6 18.7-36.8 18.7-16.2 0-30.1-7.6-36.8-18.7h-8.5c-6.7 11-20.6 18.7-36.8 18.7-16.2 0-30.1-7.6-36.8-18.7h-8.5c-6.7 11-20.6 18.7-36.8 18.7-16.2 0-30.1-7.6-36.8-18.7h-4.2l60.2 97.7c20.4-3.4 41.4-5.3 62.9-5.3s42.5 1.9 62.9 5.3"/>
</svg>
