<svg xmlns="http://www.w3.org/2000/svg" viewBox="0 0 22 20">
    <g fill-rule="evenodd" clip-rule="evenodd">
        <path d="M0 10.014c0 1.985 1.486 3.632 3.438 3.95l.688.055h3.832v-.994H4.173l-.456-.036C2.4 12.78.943 11.217.943 9.94c0-1 .85-2.6 2.495-3.167l-.33-.864c-.078-.167-.117-.344-.117-.528 0-.718.727-1.785 1.866-1.785.39 0 .85.195 1.11.472l1.076.746.914-1.22C8.99 2.055 10.736.994 12.706.994c2.777 0 5.518 2.647 5.562 5.293v.938l.967.26c1.09.366 1.82 1.353 1.82 2.455 0 1.276-1.307 2.876-2.625 3.086H14.067v.993h3.806l.688-.056C20.515 13.646 22 12 22 10.014c0-1.744-1.148-3.23-2.75-3.778C19.19 2.782 16.29 0 12.72 0c-2.576 0-4.803 1.447-5.867 3.55-.503-.54-1.23-.88-2.04-.88-1.52 0-2.75 1.196-2.75 2.67 0 .385.083.75.233 1.08C.936 7.077 0 8.44 0 10.015z"/>
        <path d="M10.502 6v12.75L6 16v1l5 3 5-3v-1l-4.5 2.75V6"/>
    </g>
</svg>
