<svg xmlns="http://www.w3.org/2000/svg" viewBox="0 0 22 20">
    <g fill-rule="evenodd" clip-rule="evenodd">
        <path d="M1 2h20v1H1zM2 0h18v1H2zM14.91 11.765c-.087-.135-.26-.167-.39-.076L11.76 13.63c-.064.045-.15.027-.19-.042L8.31 7.966c-.077-.136-.202-.137-.275.003l-6.037 9.64c-.073.14-.006.254.15.254h17.655c.15 0 .21-.108.126-.24l-5.02-5.86z"/>
        <circle cx="17.5" cy="7.5" r="1.5"/>
        <path d="M0 4.13v15.74c0 .072.063.13.14.13h21.72c.077 0 .14-.058.14-.13V4.13c0-.072-.063-.13-.14-.13H.14C.064 4 0 4.058 0 4.13zM1 5h20v14H1V5z"/>
    </g>
</svg>
