<svg xmlns="http://www.w3.org/2000/svg" viewBox="0 0 21.543 21.544">
    <g fill-rule="evenodd" clip-rule="evenodd">
        <path d="M5.037 5.037c-.78.78-.795 2.034-.03 2.797.763.764 2.015.75 2.796-.03.78-.782.795-2.034.03-2.798s-2.015-.75-2.796.03zM7.112 7.11c-.39.392-1.017.4-1.4.017-.38-.382-.374-1.008.017-1.398.39-.392 1.016-.4 1.397-.017.382.382.375 1.008-.015 1.398z"/>
        <path d="M10.607 0l-9.4.68C.934.7.698.94.68 1.206l-.68 9.4 10.796 10.797c.19.19.504.188.7-.007l9.9-9.9c.195-.196.195-.51.007-.7L10.607 0zm9.388 11.512l-8.483 8.483c-.195.195-.51.2-.7.01L.937 10.13l.745-7.906c.025-.27.268-.515.54-.54L10.13.937l9.874 9.874c.194.193.187.504-.01.7z"/>
    </g>
</svg>
