<svg xmlns="http://www.w3.org/2000/svg" viewBox="0 0 21.409 21.132">
    <g fill-rule="evenodd" clip-rule="evenodd">
        <path d="M10.01 21.066c.546 0 .99-.44.99-1.002V1.068c0-.554-.45-1.003-.99-1.003H6.99c-.546 0-.99.44-.99 1.003v18.995c0 .554.45 1.002.99 1.002h3.02zM6.997 1.07c0-.008 3.002-.002 3.002-.002-.01 0-.007 18.996-.007 18.996 0 .008-3.002.002-3.002.002C7 20.066 7 1.07 7 1.07zM17.76 21.1l2.916-.782c.53-.142.843-.68.698-1.225L16.457.745c-.143-.535-.695-.852-1.217-.712l-2.916.78c-.53.143-.843.682-.698 1.226l4.916 18.347c.145.535.696.85 1.218.712zM15.49 1.002c-.007.002 4.91 18.35 4.91 18.35.003.008-2.898.78-2.898.78.008-.003-4.91-18.35-4.91-18.35-.003-.008 2.9-.78 2.9-.78zM4.01 21.066c.546 0 .99-.44.99-1.003V1.068C5 .514 4.55.065 4.01.065H.99C.445.065 0 .505 0 1.068v18.995c0 .554.45 1.002.99 1.002h3.02zM.997 1.07C.998 1.062 4 1.068 4 1.068c-.01 0-.007 18.996-.007 18.996 0 .008-3.002.002-3.002.002C1 20.066 1 1.07 1 1.07z"/>
    </g>
</svg>
