<svg xmlns="http://www.w3.org/2000/svg" viewBox="0 90 612 612">
    <path d="M139.09 396c0-38.417-31.128-69.545-69.544-69.545S0 357.583 0 396s31.13 69.545 69.545 69.545S139.09 434.417 139.09 396zM27.82 396c0-23.033 18.694-41.727 41.727-41.727s41.727 18.694 41.727 41.727c0 23.033-18.694 41.727-41.727 41.727S27.818 419.033 27.818 396zM612 396c0-38.417-31.13-69.545-69.545-69.545S472.91 357.583 472.91 396s31.128 69.545 69.544 69.545S612 434.417 612 396zm-111.273 0c0-23.033 18.694-41.727 41.727-41.727 23.033 0 41.727 18.694 41.727 41.727 0 23.033-18.693 41.727-41.726 41.727-23.033 0-41.727-18.694-41.727-41.727zM375.545 396c0-38.417-31.13-69.545-69.545-69.545S236.455 357.583 236.455 396s31.13 69.545 69.545 69.545 69.545-31.128 69.545-69.545zm-111.272 0c0-23.033 18.694-41.727 41.727-41.727s41.727 18.694 41.727 41.727c0 23.033-18.694 41.727-41.727 41.727S264.273 419.033 264.273 396z"/>
</svg>
