<svg xmlns="http://www.w3.org/2000/svg" viewBox="0 0 22 18">
    <g fill-rule="evenodd" clip-rule="evenodd">
        <circle cx="17.5" cy="4.5" r="1.5"/>
        <path d="M21.86 18c.077 0 .14-.065.14-.145V.145c0-.08-.063-.145-.14-.145H.14C.064 0 0 .065 0 .145v17.71c0 .08.063.145.14.145h21.72zM1 1h20v16H1V1z"/>
        <path d="M14.91 7.765c-.087-.135-.26-.167-.39-.076L11.76 9.63c-.064.045-.15.027-.19-.042L8.31 3.966c-.077-.136-.202-.137-.275.003l-.322.62-5.715 11.02c-.073.14-.006.254.15.254h17.655c.15 0 .21-.108.126-.24l-5.02-7.86z"/>
    </g>
</svg>
