<svg xmlns="http://www.w3.org/2000/svg" viewBox="0 0 22 16">
    <g fill-rule="evenodd" clip-rule="evenodd">
        <circle cx="17" cy="5" r="1"/>
        <path d="M5.778 1.5C5.9 1.5 6 1.41 6 1.3V.7c0-.11-.1-.2-.222-.2H4.222C4.1.5 4 .59 4 .7v.6c0 .11.1.2.222.2h1.556zM11.5 13c2.485 0 4.5-2.015 4.5-4.5S13.985 4 11.5 4 7 6.015 7 8.5 9.015 13 11.5 13zm0-8C13.433 5 15 6.567 15 8.5S13.433 12 11.5 12 8 10.433 8 8.5 9.567 5 11.5 5z"/>
        <path d="M0 4v10c0 2 2 2 2 2h18s2 0 2-2V4c0-2-2-2-2-2h-3.8L15.138.23c-.076-.127-.26-.23-.404-.23H8.266c-.147 0-.33.107-.404.23L6.8 2H2S0 2 0 4zm7.474-1l1.114-2h5.728l1.267 2h4.406S21 3 21 4.018v9.963C21 15 19.99 15 19.99 15H2.01S1 15 1 13.98V4.02C1 3 2.01 3 2.01 3h5.464z"/>
    </g>
</svg>
