<svg xmlns="http://www.w3.org/2000/svg" viewBox="0 0 22 18.588">
    <g fill-rule="evenodd" clip-rule="evenodd">
        <path d="M4.22 8h12.56c.12 0 .22-.1.22-.222v-.556C17 7.1 16.903 7 16.78 7H4.22C4.1 7 4 7.1 4 7.222v.556C4 7.9 4.097 8 4.22 8zM4.22 5h12.56c.12 0 .22-.1.22-.222v-.556C17 4.1 16.903 4 16.78 4H4.22C4.1 4 4 4.1 4 4.222v.556C4 4.9 4.097 5 4.22 5zM4.21 11h8.58c.116 0 .21-.1.21-.222v-.556c0-.123-.095-.222-.21-.222H4.21c-.116 0-.21.1-.21.222v.556c0 .123.095.222.21.222z"/>
        <path d="M3 15l2.817 3.275c.36.42.954.415 1.317 0L10 15h10.997C21.55 15 22 14.55 22 13.993V1.008C22 .45 21.56 0 20.998 0H1.002C.45 0 0 .45 0 1.008v12.985C0 14.55.443 15 1 15h2zM1 1h20v13H9.71l-3.238 3.562L3.516 14H1V1z"/>
    </g>
</svg>
