<svg xmlns="http://www.w3.org/2000/svg" viewBox="0 0 18 24">
    <g fill-rule="evenodd" clip-rule="evenodd">
        <path d="M18 20V2c0-2-2.06-2-2.06-2H4.06S2.764 0 2.228 1H15.89S17 1 17 2.034v19.7c.505-.254 1-.754 1-1.734z"/>
        <path d="M0 4v18c0 2 2.06 2 2.06 2h11.88S16 24 16 22v-.002c.06-.003.154-.01.273-.03H16V4c0-2-2.06-2-2.06-2H2.06S0 2 0 4zm15 17.965C15 23 13.89 23 13.89 23H2.11S1 23 1 21.965V21h14v.965zM13.89 3S15 3 15 4.034V20H1V4.034C1 3 2.11 3 2.11 3h11.78z"/>
        <ellipse cx="7.975" cy="21.95" rx=".775" ry=".75"/>
    </g>
</svg>
