<svg xmlns="http://www.w3.org/2000/svg" viewBox="0 0 24 24">
    <g fill-rule="evenodd" clip-rule="evenodd">
        <ellipse cx="21.95" cy="16.025" rx=".75" ry=".775"/>
        <ellipse cx="7.975" cy="19.95" rx=".775" ry=".75"/>
        <path d="M13.94 0H2.06S0 0 0 2v18c0 2 2.06 2 2.06 2h11.88S16 22 16 20V2c0-2-2.06-2-2.06-2zM15 19.966C15 21 13.89 21 13.89 21H2.11S1 21 1 19.966V19h14v.966zM15 18H1V2.035C1 1 2.11 1 2.11 1h11.78S15 1 15 2.035V18z"/>
        <path d="M10.517 23H2.265c.255.505.755 1 1.735 1h18c2 0 2-2.06 2-2.06V10.06S24 8 22 8h-5v1h3v14h-9.483zM21 9h.965C23 9 23 10.11 23 10.11v11.78S23 23 21.966 23H21V9z"/>
    </g>
</svg>
