<svg xmlns="http://www.w3.org/2000/svg" viewBox="0 0 12 20">
    <g fill-rule="evenodd" clip-rule="evenodd">
        <path d="M.5 8c-.5 0-.5.502-.5.502v2.867c0 1.28.562 4.984 5.5 5.218V19H1.9v1h8v-1H6.5v-2.412c4.938-.234 5.5-3.938 5.5-5.22V8.662s.013-.66-.496-.66c-.51 0-.51.66-.51.66v2.647c0 1.323-.6 4.31-4.995 4.31-4.397 0-5-2.987-5-4.31V8.502C1.003 8.502 1 8 .5 8z"/>
        <path d="M9 10.4V2.6S9 0 6 0 3 2.6 3 2.6v7.8S3 13 6 13s3-2.6 3-2.6zm-5 .225v-8.25S4 1 6 1s2 1.375 2 1.375v8.25S8 12 6 12s-2-1.375-2-1.375z"/>
    </g>
</svg>
